<svg xmlns="http://www.w3.org/2000/svg" width="900" height="268" viewBox="0 0 900 268">
  <rect width="900" height="268" fill="#ffffff" rx="6" ry="6" />
  <!-- title -->
  <text x="450" y="20" text-anchor="middle"
        font-family="-apple-system, BlinkMacSystemFont, &quot;Segoe UI&quot;, Helvetica, Arial, sans-serif" font-size="14" font-weight="600" fill="#24292e"
        >Channel Plays — Record Growth</text>
  <!-- legend -->
  <circle cx="365" cy="31" r="4" fill="#3b82f6" />
  <text x="373" y="34" font-family="-apple-system, BlinkMacSystemFont, &quot;Segoe UI&quot;, Helvetica, Arial, sans-serif" font-size="11" fill="#586069">Total Records</text>
  <circle cx="455" cy="31" r="4" fill="#22c55e" />
  <text x="463" y="34" font-family="-apple-system, BlinkMacSystemFont, &quot;Segoe UI&quot;, Helvetica, Arial, sans-serif" font-size="11" fill="#586069">Added</text>
  <!-- grid lines -->
  <line x1="58" y1="52" x2="848" y2="52"
           stroke="#e1e4e8" stroke-width="1" stroke-dasharray="4,3" />
  <line x1="58" y1="145" x2="848" y2="145"
           stroke="#e1e4e8" stroke-width="1" stroke-dasharray="4,3" />
  <line x1="58" y1="236" x2="848" y2="236"
           stroke="#e1e4e8" stroke-width="1" stroke-dasharray="4,3" />
  <!-- bars (Added, right axis) -->
  <rect x="59" y="74" width="28" height="166"
          rx="1" fill="#22c55eb3" />
  <rect x="89" y="75" width="28" height="165"
          rx="1" fill="#22c55eb3" />
  <rect x="119" y="74" width="28" height="166"
          rx="1" fill="#22c55eb3" />
  <rect x="149" y="74" width="28" height="166"
          rx="1" fill="#22c55eb3" />
  <rect x="179" y="77" width="28" height="163"
          rx="1" fill="#22c55eb3" />
  <rect x="209" y="75" width="28" height="165"
          rx="1" fill="#22c55eb3" />
  <rect x="239" y="74" width="28" height="166"
          rx="1" fill="#22c55eb3" />
  <rect x="269" y="73" width="28" height="167"
          rx="1" fill="#22c55eb3" />
  <rect x="299" y="75" width="28" height="165"
          rx="1" fill="#22c55eb3" />
  <rect x="329" y="73" width="28" height="167"
          rx="1" fill="#22c55eb3" />
  <rect x="359" y="74" width="28" height="166"
          rx="1" fill="#22c55eb3" />
  <rect x="389" y="75" width="28" height="165"
          rx="1" fill="#22c55eb3" />
  <rect x="419" y="75" width="28" height="165"
          rx="1" fill="#22c55eb3" />
  <rect x="449" y="77" width="28" height="163"
          rx="1" fill="#22c55eb3" />
  <rect x="479" y="77" width="28" height="163"
          rx="1" fill="#22c55eb3" />
  <rect x="509" y="75" width="28" height="165"
          rx="1" fill="#22c55eb3" />
  <rect x="539" y="74" width="28" height="166"
          rx="1" fill="#22c55eb3" />
  <rect x="569" y="97" width="28" height="143"
          rx="1" fill="#22c55eb3" />
  <rect x="599" y="201" width="28" height="39"
          rx="1" fill="#22c55eb3" />
  <rect x="629" y="117" width="28" height="123"
          rx="1" fill="#22c55eb3" />
  <rect x="659" y="100" width="28" height="140"
          rx="1" fill="#22c55eb3" />
  <rect x="689" y="101" width="28" height="139"
          rx="1" fill="#22c55eb3" />
  <rect x="719" y="101" width="28" height="139"
          rx="1" fill="#22c55eb3" />
  <rect x="749" y="103" width="28" height="137"
          rx="1" fill="#22c55eb3" />
  <rect x="779" y="104" width="28" height="136"
          rx="1" fill="#22c55eb3" />
  <rect x="809" y="166" width="28" height="74"
          rx="1" fill="#22c55eb3" />
  <!-- line (Total, left axis) -->
  <polyline points="73,240 103,232 133,223 163,215 193,206 223,198 253,189 283,181 313,172 343,164 373,155 403,147 433,138 463,130 493,122 523,113 553,105 583,97 613,95 643,89 673,82 703,75 733,68 763,61 793,54 823,50" fill="none" stroke="#3b82f6" stroke-width="2" stroke-linejoin="round" stroke-linecap="round" />
  <!-- left y-axis labels (Total) -->
  <text x="52" y="56" text-anchor="end"
           font-family="-apple-system, BlinkMacSystemFont, &quot;Segoe UI&quot;, Helvetica, Arial, sans-serif" font-size="10" fill="#586069"
           >59M</text>
  <text x="52" y="149" text-anchor="end"
           font-family="-apple-system, BlinkMacSystemFont, &quot;Segoe UI&quot;, Helvetica, Arial, sans-serif" font-size="10" fill="#586069"
           >56M</text>
  <text x="52" y="240" text-anchor="end"
           font-family="-apple-system, BlinkMacSystemFont, &quot;Segoe UI&quot;, Helvetica, Arial, sans-serif" font-size="10" fill="#586069"
           >52M</text>
  <!-- right y-axis labels (Added) -->
  <text x="854" y="56" text-anchor="start"
           font-family="-apple-system, BlinkMacSystemFont, &quot;Segoe UI&quot;, Helvetica, Arial, sans-serif" font-size="10" fill="#22c55e"
           >334k</text>
  <text x="854" y="149" text-anchor="start"
           font-family="-apple-system, BlinkMacSystemFont, &quot;Segoe UI&quot;, Helvetica, Arial, sans-serif" font-size="10" fill="#22c55e"
           >167k</text>
  <text x="854" y="240" text-anchor="start"
           font-family="-apple-system, BlinkMacSystemFont, &quot;Segoe UI&quot;, Helvetica, Arial, sans-serif" font-size="10" fill="#22c55e"
           >0</text>
  <!-- axes -->
  <line x1="58" y1="50" x2="58" y2="240"
        stroke="#e1e4e8" stroke-width="1" />
  <line x1="58" y1="240" x2="848" y2="240"
        stroke="#e1e4e8" stroke-width="1" />
  <line x1="848" y1="50" x2="848" y2="240"
           stroke="#e1e4e8" stroke-width="1" />
  <!-- x-axis labels -->
  <text x="73" y="256" text-anchor="middle"
           font-family="-apple-system, BlinkMacSystemFont, &quot;Segoe UI&quot;, Helvetica, Arial, sans-serif" font-size="10" fill="#586069"
           >Aug 24</text>
  <text x="313" y="256" text-anchor="middle"
           font-family="-apple-system, BlinkMacSystemFont, &quot;Segoe UI&quot;, Helvetica, Arial, sans-serif" font-size="10" fill="#586069"
           >Oct 19</text>
  <text x="553" y="256" text-anchor="middle"
           font-family="-apple-system, BlinkMacSystemFont, &quot;Segoe UI&quot;, Helvetica, Arial, sans-serif" font-size="10" fill="#586069"
           >Dec 14</text>
  <text x="793" y="256" text-anchor="middle"
           font-family="-apple-system, BlinkMacSystemFont, &quot;Segoe UI&quot;, Helvetica, Arial, sans-serif" font-size="10" fill="#586069"
           >Feb 8</text>
  <text x="823" y="256" text-anchor="middle"
           font-family="-apple-system, BlinkMacSystemFont, &quot;Segoe UI&quot;, Helvetica, Arial, sans-serif" font-size="10" fill="#586069"
           >Feb 15</text>
</svg>