<svg xmlns="http://www.w3.org/2000/svg" width="900" height="268" viewBox="0 0 900 268">
  <rect width="900" height="268" fill="#ffffff" rx="6" ry="6" />
  <!-- title -->
  <text x="450" y="20" text-anchor="middle"
        font-family="-apple-system, BlinkMacSystemFont, &quot;Segoe UI&quot;, Helvetica, Arial, sans-serif" font-size="14" font-weight="600" fill="#24292e"
        >Channel Plays — Record Growth</text>
  <!-- legend -->
  <circle cx="365" cy="31" r="4" fill="#3b82f6" />
  <text x="373" y="34" font-family="-apple-system, BlinkMacSystemFont, &quot;Segoe UI&quot;, Helvetica, Arial, sans-serif" font-size="11" fill="#586069">Total Records</text>
  <circle cx="455" cy="31" r="4" fill="#22c55e" />
  <text x="463" y="34" font-family="-apple-system, BlinkMacSystemFont, &quot;Segoe UI&quot;, Helvetica, Arial, sans-serif" font-size="11" fill="#586069">Added</text>
  <!-- grid lines -->
  <line x1="58" y1="52" x2="848" y2="52"
           stroke="#e1e4e8" stroke-width="1" stroke-dasharray="4,3" />
  <line x1="58" y1="145" x2="848" y2="145"
           stroke="#e1e4e8" stroke-width="1" stroke-dasharray="4,3" />
  <line x1="58" y1="236" x2="848" y2="236"
           stroke="#e1e4e8" stroke-width="1" stroke-dasharray="4,3" />
  <!-- bars (Added, right axis) -->
  <rect x="60" y="74" width="27" height="166"
          rx="1" fill="#22c55eb3" />
  <rect x="89" y="75" width="27" height="165"
          rx="1" fill="#22c55eb3" />
  <rect x="118" y="74" width="27" height="166"
          rx="1" fill="#22c55eb3" />
  <rect x="147" y="74" width="27" height="166"
          rx="1" fill="#22c55eb3" />
  <rect x="176" y="77" width="27" height="163"
          rx="1" fill="#22c55eb3" />
  <rect x="205" y="75" width="27" height="165"
          rx="1" fill="#22c55eb3" />
  <rect x="234" y="74" width="27" height="166"
          rx="1" fill="#22c55eb3" />
  <rect x="263" y="73" width="27" height="167"
          rx="1" fill="#22c55eb3" />
  <rect x="292" y="75" width="27" height="165"
          rx="1" fill="#22c55eb3" />
  <rect x="321" y="73" width="27" height="167"
          rx="1" fill="#22c55eb3" />
  <rect x="350" y="74" width="27" height="166"
          rx="1" fill="#22c55eb3" />
  <rect x="379" y="75" width="27" height="165"
          rx="1" fill="#22c55eb3" />
  <rect x="408" y="75" width="27" height="165"
          rx="1" fill="#22c55eb3" />
  <rect x="437" y="77" width="27" height="163"
          rx="1" fill="#22c55eb3" />
  <rect x="466" y="77" width="27" height="163"
          rx="1" fill="#22c55eb3" />
  <rect x="495" y="75" width="27" height="165"
          rx="1" fill="#22c55eb3" />
  <rect x="524" y="74" width="27" height="166"
          rx="1" fill="#22c55eb3" />
  <rect x="553" y="97" width="27" height="143"
          rx="1" fill="#22c55eb3" />
  <rect x="582" y="201" width="27" height="39"
          rx="1" fill="#22c55eb3" />
  <rect x="611" y="117" width="27" height="123"
          rx="1" fill="#22c55eb3" />
  <rect x="640" y="100" width="27" height="140"
          rx="1" fill="#22c55eb3" />
  <rect x="669" y="101" width="27" height="139"
          rx="1" fill="#22c55eb3" />
  <rect x="698" y="101" width="27" height="139"
          rx="1" fill="#22c55eb3" />
  <rect x="727" y="103" width="27" height="137"
          rx="1" fill="#22c55eb3" />
  <rect x="756" y="104" width="27" height="136"
          rx="1" fill="#22c55eb3" />
  <rect x="785" y="104" width="27" height="136"
          rx="1" fill="#22c55eb3" />
  <rect x="814" y="224" width="27" height="16"
          rx="1" fill="#22c55eb3" />
  <!-- line (Total, left axis) -->
  <polyline points="73,240 102,232 131,223 160,215 189,207 218,199 247,190 276,182 305,174 334,165 363,157 392,149 421,141 450,132 479,124 508,116 537,108 566,100 595,98 624,92 653,85 682,78 711,71 740,64 769,58 798,51 827,50" fill="none" stroke="#3b82f6" stroke-width="2" stroke-linejoin="round" stroke-linecap="round" />
  <!-- left y-axis labels (Total) -->
  <text x="52" y="56" text-anchor="end"
           font-family="-apple-system, BlinkMacSystemFont, &quot;Segoe UI&quot;, Helvetica, Arial, sans-serif" font-size="10" fill="#586069"
           >59M</text>
  <text x="52" y="149" text-anchor="end"
           font-family="-apple-system, BlinkMacSystemFont, &quot;Segoe UI&quot;, Helvetica, Arial, sans-serif" font-size="10" fill="#586069"
           >56M</text>
  <text x="52" y="240" text-anchor="end"
           font-family="-apple-system, BlinkMacSystemFont, &quot;Segoe UI&quot;, Helvetica, Arial, sans-serif" font-size="10" fill="#586069"
           >52M</text>
  <!-- right y-axis labels (Added) -->
  <text x="854" y="56" text-anchor="start"
           font-family="-apple-system, BlinkMacSystemFont, &quot;Segoe UI&quot;, Helvetica, Arial, sans-serif" font-size="10" fill="#22c55e"
           >334k</text>
  <text x="854" y="149" text-anchor="start"
           font-family="-apple-system, BlinkMacSystemFont, &quot;Segoe UI&quot;, Helvetica, Arial, sans-serif" font-size="10" fill="#22c55e"
           >167k</text>
  <text x="854" y="240" text-anchor="start"
           font-family="-apple-system, BlinkMacSystemFont, &quot;Segoe UI&quot;, Helvetica, Arial, sans-serif" font-size="10" fill="#22c55e"
           >0</text>
  <!-- axes -->
  <line x1="58" y1="50" x2="58" y2="240"
        stroke="#e1e4e8" stroke-width="1" />
  <line x1="58" y1="240" x2="848" y2="240"
        stroke="#e1e4e8" stroke-width="1" />
  <line x1="848" y1="50" x2="848" y2="240"
           stroke="#e1e4e8" stroke-width="1" />
  <!-- x-axis labels -->
  <text x="73" y="256" text-anchor="middle"
           font-family="-apple-system, BlinkMacSystemFont, &quot;Segoe UI&quot;, Helvetica, Arial, sans-serif" font-size="10" fill="#586069"
           >Aug 24</text>
  <text x="305" y="256" text-anchor="middle"
           font-family="-apple-system, BlinkMacSystemFont, &quot;Segoe UI&quot;, Helvetica, Arial, sans-serif" font-size="10" fill="#586069"
           >Oct 19</text>
  <text x="537" y="256" text-anchor="middle"
           font-family="-apple-system, BlinkMacSystemFont, &quot;Segoe UI&quot;, Helvetica, Arial, sans-serif" font-size="10" fill="#586069"
           >Dec 14</text>
  <text x="769" y="256" text-anchor="middle"
           font-family="-apple-system, BlinkMacSystemFont, &quot;Segoe UI&quot;, Helvetica, Arial, sans-serif" font-size="10" fill="#586069"
           >Feb 8</text>
  <text x="827" y="256" text-anchor="middle"
           font-family="-apple-system, BlinkMacSystemFont, &quot;Segoe UI&quot;, Helvetica, Arial, sans-serif" font-size="10" fill="#586069"
           >Feb 22</text>
</svg>