<svg xmlns="http://www.w3.org/2000/svg" width="900" height="268" viewBox="0 0 900 268">
  <rect width="900" height="268" fill="#ffffff" rx="6" ry="6" />
  <!-- title -->
  <text x="450" y="20" text-anchor="middle"
        font-family="-apple-system, BlinkMacSystemFont, &quot;Segoe UI&quot;, Helvetica, Arial, sans-serif" font-size="14" font-weight="600" fill="#24292e"
        >Channel Plays — Record Growth</text>
  <!-- legend -->
  <circle cx="365" cy="31" r="4" fill="#3b82f6" />
  <text x="373" y="34" font-family="-apple-system, BlinkMacSystemFont, &quot;Segoe UI&quot;, Helvetica, Arial, sans-serif" font-size="11" fill="#586069">Total Records</text>
  <circle cx="455" cy="31" r="4" fill="#22c55e" />
  <text x="463" y="34" font-family="-apple-system, BlinkMacSystemFont, &quot;Segoe UI&quot;, Helvetica, Arial, sans-serif" font-size="11" fill="#586069">Added</text>
  <!-- grid lines -->
  <line x1="58" y1="52" x2="848" y2="52"
           stroke="#e1e4e8" stroke-width="1" stroke-dasharray="4,3" />
  <line x1="58" y1="145" x2="848" y2="145"
           stroke="#e1e4e8" stroke-width="1" stroke-dasharray="4,3" />
  <line x1="58" y1="236" x2="848" y2="236"
           stroke="#e1e4e8" stroke-width="1" stroke-dasharray="4,3" />
  <!-- bars (Added, right axis) -->
  <rect x="60" y="74" width="33" height="166"
          rx="1" fill="#22c55eb3" />
  <rect x="95" y="73" width="33" height="167"
          rx="1" fill="#22c55eb3" />
  <rect x="130" y="75" width="33" height="165"
          rx="1" fill="#22c55eb3" />
  <rect x="165" y="73" width="33" height="167"
          rx="1" fill="#22c55eb3" />
  <rect x="200" y="74" width="33" height="166"
          rx="1" fill="#22c55eb3" />
  <rect x="235" y="75" width="33" height="165"
          rx="1" fill="#22c55eb3" />
  <rect x="270" y="75" width="33" height="165"
          rx="1" fill="#22c55eb3" />
  <rect x="305" y="77" width="33" height="163"
          rx="1" fill="#22c55eb3" />
  <rect x="340" y="77" width="33" height="163"
          rx="1" fill="#22c55eb3" />
  <rect x="375" y="75" width="33" height="165"
          rx="1" fill="#22c55eb3" />
  <rect x="410" y="74" width="33" height="166"
          rx="1" fill="#22c55eb3" />
  <rect x="445" y="97" width="33" height="143"
          rx="1" fill="#22c55eb3" />
  <rect x="480" y="201" width="33" height="39"
          rx="1" fill="#22c55eb3" />
  <rect x="515" y="117" width="33" height="123"
          rx="1" fill="#22c55eb3" />
  <rect x="550" y="100" width="33" height="140"
          rx="1" fill="#22c55eb3" />
  <rect x="585" y="101" width="33" height="139"
          rx="1" fill="#22c55eb3" />
  <rect x="620" y="101" width="33" height="139"
          rx="1" fill="#22c55eb3" />
  <rect x="655" y="103" width="33" height="137"
          rx="1" fill="#22c55eb3" />
  <rect x="690" y="104" width="33" height="136"
          rx="1" fill="#22c55eb3" />
  <rect x="725" y="104" width="33" height="136"
          rx="1" fill="#22c55eb3" />
  <rect x="760" y="109" width="33" height="131"
          rx="1" fill="#22c55eb3" />
  <rect x="795" y="122" width="33" height="118"
          rx="1" fill="#22c55eb3" />
  <!-- line (Total, left axis) -->
  <polyline points="76,240 111,230 146,219 181,209 216,198 251,188 286,178 321,168 356,157 391,147 426,137 461,128 496,125 531,117 566,109 601,100 636,91 671,83 706,74 741,66 776,57 811,50" fill="none" stroke="#3b82f6" stroke-width="2" stroke-linejoin="round" stroke-linecap="round" />
  <!-- left y-axis labels (Total) -->
  <text x="52" y="56" text-anchor="end"
           font-family="-apple-system, BlinkMacSystemFont, &quot;Segoe UI&quot;, Helvetica, Arial, sans-serif" font-size="10" fill="#586069"
           >60M</text>
  <text x="52" y="149" text-anchor="end"
           font-family="-apple-system, BlinkMacSystemFont, &quot;Segoe UI&quot;, Helvetica, Arial, sans-serif" font-size="10" fill="#586069"
           >57M</text>
  <text x="52" y="240" text-anchor="end"
           font-family="-apple-system, BlinkMacSystemFont, &quot;Segoe UI&quot;, Helvetica, Arial, sans-serif" font-size="10" fill="#586069"
           >54M</text>
  <!-- right y-axis labels (Added) -->
  <text x="854" y="56" text-anchor="start"
           font-family="-apple-system, BlinkMacSystemFont, &quot;Segoe UI&quot;, Helvetica, Arial, sans-serif" font-size="10" fill="#22c55e"
           >334k</text>
  <text x="854" y="149" text-anchor="start"
           font-family="-apple-system, BlinkMacSystemFont, &quot;Segoe UI&quot;, Helvetica, Arial, sans-serif" font-size="10" fill="#22c55e"
           >167k</text>
  <text x="854" y="240" text-anchor="start"
           font-family="-apple-system, BlinkMacSystemFont, &quot;Segoe UI&quot;, Helvetica, Arial, sans-serif" font-size="10" fill="#22c55e"
           >0</text>
  <!-- axes -->
  <line x1="58" y1="50" x2="58" y2="240"
        stroke="#e1e4e8" stroke-width="1" />
  <line x1="58" y1="240" x2="848" y2="240"
        stroke="#e1e4e8" stroke-width="1" />
  <line x1="848" y1="50" x2="848" y2="240"
           stroke="#e1e4e8" stroke-width="1" />
  <!-- x-axis labels -->
  <text x="76" y="256" text-anchor="middle"
           font-family="-apple-system, BlinkMacSystemFont, &quot;Segoe UI&quot;, Helvetica, Arial, sans-serif" font-size="10" fill="#586069"
           >Oct 5</text>
  <text x="321" y="256" text-anchor="middle"
           font-family="-apple-system, BlinkMacSystemFont, &quot;Segoe UI&quot;, Helvetica, Arial, sans-serif" font-size="10" fill="#586069"
           >Nov 23</text>
  <text x="566" y="256" text-anchor="middle"
           font-family="-apple-system, BlinkMacSystemFont, &quot;Segoe UI&quot;, Helvetica, Arial, sans-serif" font-size="10" fill="#586069"
           >Jan 11</text>
  <text x="811" y="256" text-anchor="middle"
           font-family="-apple-system, BlinkMacSystemFont, &quot;Segoe UI&quot;, Helvetica, Arial, sans-serif" font-size="10" fill="#586069"
           >Mar 1</text>
</svg>