<svg xmlns="http://www.w3.org/2000/svg" width="900" height="268" viewBox="0 0 900 268">
  <rect width="900" height="268" fill="#ffffff" rx="6" ry="6" />
  <!-- title -->
  <text x="450" y="20" text-anchor="middle"
        font-family="-apple-system, BlinkMacSystemFont, &quot;Segoe UI&quot;, Helvetica, Arial, sans-serif" font-size="14" font-weight="600" fill="#24292e"
        >Channel Plays — Record Growth</text>
  <!-- legend -->
  <circle cx="365" cy="31" r="4" fill="#3b82f6" />
  <text x="373" y="34" font-family="-apple-system, BlinkMacSystemFont, &quot;Segoe UI&quot;, Helvetica, Arial, sans-serif" font-size="11" fill="#586069">Total Records</text>
  <circle cx="455" cy="31" r="4" fill="#22c55e" />
  <text x="463" y="34" font-family="-apple-system, BlinkMacSystemFont, &quot;Segoe UI&quot;, Helvetica, Arial, sans-serif" font-size="11" fill="#586069">Added</text>
  <!-- grid lines -->
  <line x1="58" y1="52" x2="848" y2="52"
           stroke="#e1e4e8" stroke-width="1" stroke-dasharray="4,3" />
  <line x1="58" y1="145" x2="848" y2="145"
           stroke="#e1e4e8" stroke-width="1" stroke-dasharray="4,3" />
  <line x1="58" y1="236" x2="848" y2="236"
           stroke="#e1e4e8" stroke-width="1" stroke-dasharray="4,3" />
  <!-- bars (Added, right axis) -->
  <rect x="60" y="74" width="29" height="166"
          rx="1" fill="#22c55eb3" />
  <rect x="91" y="74" width="29" height="166"
          rx="1" fill="#22c55eb3" />
  <rect x="122" y="77" width="29" height="163"
          rx="1" fill="#22c55eb3" />
  <rect x="153" y="75" width="29" height="165"
          rx="1" fill="#22c55eb3" />
  <rect x="184" y="74" width="29" height="166"
          rx="1" fill="#22c55eb3" />
  <rect x="215" y="73" width="29" height="167"
          rx="1" fill="#22c55eb3" />
  <rect x="246" y="75" width="29" height="165"
          rx="1" fill="#22c55eb3" />
  <rect x="277" y="73" width="29" height="167"
          rx="1" fill="#22c55eb3" />
  <rect x="308" y="74" width="29" height="166"
          rx="1" fill="#22c55eb3" />
  <rect x="339" y="75" width="29" height="165"
          rx="1" fill="#22c55eb3" />
  <rect x="370" y="75" width="29" height="165"
          rx="1" fill="#22c55eb3" />
  <rect x="401" y="77" width="29" height="163"
          rx="1" fill="#22c55eb3" />
  <rect x="432" y="77" width="29" height="163"
          rx="1" fill="#22c55eb3" />
  <rect x="463" y="75" width="29" height="165"
          rx="1" fill="#22c55eb3" />
  <rect x="494" y="74" width="29" height="166"
          rx="1" fill="#22c55eb3" />
  <rect x="525" y="97" width="29" height="143"
          rx="1" fill="#22c55eb3" />
  <rect x="556" y="201" width="29" height="39"
          rx="1" fill="#22c55eb3" />
  <rect x="587" y="117" width="29" height="123"
          rx="1" fill="#22c55eb3" />
  <rect x="618" y="100" width="29" height="140"
          rx="1" fill="#22c55eb3" />
  <rect x="649" y="101" width="29" height="139"
          rx="1" fill="#22c55eb3" />
  <rect x="680" y="101" width="29" height="139"
          rx="1" fill="#22c55eb3" />
  <rect x="711" y="103" width="29" height="137"
          rx="1" fill="#22c55eb3" />
  <rect x="742" y="104" width="29" height="136"
          rx="1" fill="#22c55eb3" />
  <rect x="773" y="104" width="29" height="136"
          rx="1" fill="#22c55eb3" />
  <rect x="804" y="112" width="29" height="128"
          rx="1" fill="#22c55eb3" />
  <!-- line (Total, left axis) -->
  <polyline points="74,240 105,231 136,222 167,214 198,205 229,196 260,187 291,178 322,170 353,161 384,152 415,143 446,135 477,126 508,117 539,109 570,107 601,101 632,93 663,86 694,79 725,71 756,64 787,57 818,50" fill="none" stroke="#3b82f6" stroke-width="2" stroke-linejoin="round" stroke-linecap="round" />
  <!-- left y-axis labels (Total) -->
  <text x="52" y="56" text-anchor="end"
           font-family="-apple-system, BlinkMacSystemFont, &quot;Segoe UI&quot;, Helvetica, Arial, sans-serif" font-size="10" fill="#586069"
           >60M</text>
  <text x="52" y="149" text-anchor="end"
           font-family="-apple-system, BlinkMacSystemFont, &quot;Segoe UI&quot;, Helvetica, Arial, sans-serif" font-size="10" fill="#586069"
           >56M</text>
  <text x="52" y="240" text-anchor="end"
           font-family="-apple-system, BlinkMacSystemFont, &quot;Segoe UI&quot;, Helvetica, Arial, sans-serif" font-size="10" fill="#586069"
           >53M</text>
  <!-- right y-axis labels (Added) -->
  <text x="854" y="56" text-anchor="start"
           font-family="-apple-system, BlinkMacSystemFont, &quot;Segoe UI&quot;, Helvetica, Arial, sans-serif" font-size="10" fill="#22c55e"
           >334k</text>
  <text x="854" y="149" text-anchor="start"
           font-family="-apple-system, BlinkMacSystemFont, &quot;Segoe UI&quot;, Helvetica, Arial, sans-serif" font-size="10" fill="#22c55e"
           >167k</text>
  <text x="854" y="240" text-anchor="start"
           font-family="-apple-system, BlinkMacSystemFont, &quot;Segoe UI&quot;, Helvetica, Arial, sans-serif" font-size="10" fill="#22c55e"
           >0</text>
  <!-- axes -->
  <line x1="58" y1="50" x2="58" y2="240"
        stroke="#e1e4e8" stroke-width="1" />
  <line x1="58" y1="240" x2="848" y2="240"
        stroke="#e1e4e8" stroke-width="1" />
  <line x1="848" y1="50" x2="848" y2="240"
           stroke="#e1e4e8" stroke-width="1" />
  <!-- x-axis labels -->
  <text x="74" y="256" text-anchor="middle"
           font-family="-apple-system, BlinkMacSystemFont, &quot;Segoe UI&quot;, Helvetica, Arial, sans-serif" font-size="10" fill="#586069"
           >Sep 7</text>
  <text x="322" y="256" text-anchor="middle"
           font-family="-apple-system, BlinkMacSystemFont, &quot;Segoe UI&quot;, Helvetica, Arial, sans-serif" font-size="10" fill="#586069"
           >Nov 2</text>
  <text x="570" y="256" text-anchor="middle"
           font-family="-apple-system, BlinkMacSystemFont, &quot;Segoe UI&quot;, Helvetica, Arial, sans-serif" font-size="10" fill="#586069"
           >Dec 28</text>
  <text x="818" y="256" text-anchor="middle"
           font-family="-apple-system, BlinkMacSystemFont, &quot;Segoe UI&quot;, Helvetica, Arial, sans-serif" font-size="10" fill="#586069"
           >Feb 22</text>
</svg>