<svg xmlns="http://www.w3.org/2000/svg" width="900" height="268" viewBox="0 0 900 268">
  <rect width="900" height="268" fill="#ffffff" rx="6" ry="6" />
  <!-- title -->
  <text x="450" y="20" text-anchor="middle"
        font-family="-apple-system, BlinkMacSystemFont, &quot;Segoe UI&quot;, Helvetica, Arial, sans-serif" font-size="14" font-weight="600" fill="#24292e"
        >Channel Plays — Record Growth</text>
  <!-- legend -->
  <circle cx="365" cy="31" r="4" fill="#3b82f6" />
  <text x="373" y="34" font-family="-apple-system, BlinkMacSystemFont, &quot;Segoe UI&quot;, Helvetica, Arial, sans-serif" font-size="11" fill="#586069">Total Records</text>
  <circle cx="455" cy="31" r="4" fill="#22c55e" />
  <text x="463" y="34" font-family="-apple-system, BlinkMacSystemFont, &quot;Segoe UI&quot;, Helvetica, Arial, sans-serif" font-size="11" fill="#586069">Added</text>
  <!-- grid lines -->
  <line x1="58" y1="52" x2="848" y2="52"
           stroke="#e1e4e8" stroke-width="1" stroke-dasharray="4,3" />
  <line x1="58" y1="145" x2="848" y2="145"
           stroke="#e1e4e8" stroke-width="1" stroke-dasharray="4,3" />
  <line x1="58" y1="236" x2="848" y2="236"
           stroke="#e1e4e8" stroke-width="1" stroke-dasharray="4,3" />
  <!-- bars (Added, right axis) -->
  <rect x="59" y="75" width="32" height="165"
          rx="1" fill="#22c55eb3" />
  <rect x="93" y="74" width="32" height="166"
          rx="1" fill="#22c55eb3" />
  <rect x="127" y="73" width="32" height="167"
          rx="1" fill="#22c55eb3" />
  <rect x="161" y="75" width="32" height="165"
          rx="1" fill="#22c55eb3" />
  <rect x="195" y="73" width="32" height="167"
          rx="1" fill="#22c55eb3" />
  <rect x="229" y="74" width="32" height="166"
          rx="1" fill="#22c55eb3" />
  <rect x="263" y="75" width="32" height="165"
          rx="1" fill="#22c55eb3" />
  <rect x="297" y="75" width="32" height="165"
          rx="1" fill="#22c55eb3" />
  <rect x="331" y="77" width="32" height="163"
          rx="1" fill="#22c55eb3" />
  <rect x="365" y="77" width="32" height="163"
          rx="1" fill="#22c55eb3" />
  <rect x="399" y="75" width="32" height="165"
          rx="1" fill="#22c55eb3" />
  <rect x="433" y="74" width="32" height="166"
          rx="1" fill="#22c55eb3" />
  <rect x="467" y="97" width="32" height="143"
          rx="1" fill="#22c55eb3" />
  <rect x="501" y="201" width="32" height="39"
          rx="1" fill="#22c55eb3" />
  <rect x="535" y="117" width="32" height="123"
          rx="1" fill="#22c55eb3" />
  <rect x="569" y="100" width="32" height="140"
          rx="1" fill="#22c55eb3" />
  <rect x="603" y="101" width="32" height="139"
          rx="1" fill="#22c55eb3" />
  <rect x="637" y="101" width="32" height="139"
          rx="1" fill="#22c55eb3" />
  <rect x="671" y="103" width="32" height="137"
          rx="1" fill="#22c55eb3" />
  <rect x="705" y="104" width="32" height="136"
          rx="1" fill="#22c55eb3" />
  <rect x="739" y="104" width="32" height="136"
          rx="1" fill="#22c55eb3" />
  <rect x="773" y="109" width="32" height="131"
          rx="1" fill="#22c55eb3" />
  <rect x="807" y="122" width="32" height="118"
          rx="1" fill="#22c55eb3" />
  <!-- line (Total, left axis) -->
  <polyline points="75,240 109,230 143,220 177,210 211,201 245,191 279,181 313,171 347,161 381,152 415,142 449,132 483,124 517,121 551,114 585,106 619,97 653,89 687,81 721,73 755,65 789,57 823,50" fill="none" stroke="#3b82f6" stroke-width="2" stroke-linejoin="round" stroke-linecap="round" />
  <!-- left y-axis labels (Total) -->
  <text x="52" y="56" text-anchor="end"
           font-family="-apple-system, BlinkMacSystemFont, &quot;Segoe UI&quot;, Helvetica, Arial, sans-serif" font-size="10" fill="#586069"
           >60M</text>
  <text x="52" y="149" text-anchor="end"
           font-family="-apple-system, BlinkMacSystemFont, &quot;Segoe UI&quot;, Helvetica, Arial, sans-serif" font-size="10" fill="#586069"
           >57M</text>
  <text x="52" y="240" text-anchor="end"
           font-family="-apple-system, BlinkMacSystemFont, &quot;Segoe UI&quot;, Helvetica, Arial, sans-serif" font-size="10" fill="#586069"
           >54M</text>
  <!-- right y-axis labels (Added) -->
  <text x="854" y="56" text-anchor="start"
           font-family="-apple-system, BlinkMacSystemFont, &quot;Segoe UI&quot;, Helvetica, Arial, sans-serif" font-size="10" fill="#22c55e"
           >334k</text>
  <text x="854" y="149" text-anchor="start"
           font-family="-apple-system, BlinkMacSystemFont, &quot;Segoe UI&quot;, Helvetica, Arial, sans-serif" font-size="10" fill="#22c55e"
           >167k</text>
  <text x="854" y="240" text-anchor="start"
           font-family="-apple-system, BlinkMacSystemFont, &quot;Segoe UI&quot;, Helvetica, Arial, sans-serif" font-size="10" fill="#22c55e"
           >0</text>
  <!-- axes -->
  <line x1="58" y1="50" x2="58" y2="240"
        stroke="#e1e4e8" stroke-width="1" />
  <line x1="58" y1="240" x2="848" y2="240"
        stroke="#e1e4e8" stroke-width="1" />
  <line x1="848" y1="50" x2="848" y2="240"
           stroke="#e1e4e8" stroke-width="1" />
  <!-- x-axis labels -->
  <text x="75" y="256" text-anchor="middle"
           font-family="-apple-system, BlinkMacSystemFont, &quot;Segoe UI&quot;, Helvetica, Arial, sans-serif" font-size="10" fill="#586069"
           >Sep 28</text>
  <text x="313" y="256" text-anchor="middle"
           font-family="-apple-system, BlinkMacSystemFont, &quot;Segoe UI&quot;, Helvetica, Arial, sans-serif" font-size="10" fill="#586069"
           >Nov 16</text>
  <text x="551" y="256" text-anchor="middle"
           font-family="-apple-system, BlinkMacSystemFont, &quot;Segoe UI&quot;, Helvetica, Arial, sans-serif" font-size="10" fill="#586069"
           >Jan 4</text>
  <text x="789" y="256" text-anchor="middle"
           font-family="-apple-system, BlinkMacSystemFont, &quot;Segoe UI&quot;, Helvetica, Arial, sans-serif" font-size="10" fill="#586069"
           >Feb 22</text>
  <text x="823" y="256" text-anchor="middle"
           font-family="-apple-system, BlinkMacSystemFont, &quot;Segoe UI&quot;, Helvetica, Arial, sans-serif" font-size="10" fill="#586069"
           >Mar 1</text>
</svg>